:SAMPLES-PER-SECOND 30
:FULLY-SPECIFIED
:DEGREES
564
root  -2.74108 40.8674 0.853817 -3.41103 -79.0011 3.20284
RightUpLeg  5.83849 -3.18863 -2.3462
RightLeg  -2.0142 -28.8398 1.64719
RightFoot  -1.54029 -0.365504 4.19459
RightToes  -3.13006e-008 1.75238e-005 3.56266e-009
Spine  -6.89049 2.28736 2.70407
Spine1  11.9502 4.6285 -8.11291
HEad  -18.2123 -5.11706 8.53946
LeftShoulder1  4.38843 -9.09608 -28.7944
LeftArm  3.29105 17.5479 -44.6412
LeftForeArm  151.959 -74.6248 -142.028
LeftHand  -0.361773 -5.09519 4.31
RightShoulder  3.0865 7.86286 20.8233
RightArm  -21.6188 42.4801 35.2173
RightForeArm  37.0535 65.4905 21.2256
RightHand  -0.133017 3.03817 -2.1264
LeftUpLeg  -0.019252 0.168257 1.23445
LeftLeg  2.30609 3.22507 -0.24884
LeftFoot  -1.4131 0.17181 -1.81172
LeftToes  4.76866e-008 1.46233e-008 1.30548e-009
565
root  -2.758 40.8666 0.83508 -3.5681 -78.9835 3.28857
RightUpLeg  5.93959 -3.18647 -2.3306
RightLeg  -2.003 -28.8709 1.63833
RightFoot  -1.6123 -0.365649 4.20491
RightToes  -3.13006e-008 1.75238e-005 3.56266e-009
Spine  -6.64054 2.68445 3.0474
Spine1  11.9095 5.12863 -8.50151
HEad  -19.052 -6.25184 9.35903
LeftShoulder1  4.40719 -9.1846 -28.6967
LeftArm  4.12161 17.1819 -45.0872
LeftForeArm  152.494 -74.9181 -141.377
LeftHand  -0.352615 -5.04563 4.22651
RightShoulder  3.18355 8.17097 20.9454
RightArm  -27.5572 43.1535 33.0739
RightForeArm  37.16 64.8931 20.5379
RightHand  -0.0765971 4.21109 -1.12988
LeftUpLeg  0.143475 0.19822 1.2516
LeftLeg  2.18839 3.15111 -0.255914
LeftFoot  -1.43022 0.170182 -1.81305
LeftToes  4.76866e-008 1.46233e-008 1.30548e-009
566
root  -2.76267 40.8634 0.814539 -3.44972 -78.4474 3.13388
RightUpLeg  6.03604 -3.2838 -2.32153
RightLeg  -1.97573 -29.286 1.73193
RightFoot  -1.71157 -0.363531 4.18128
RightToes  -3.13006e-008 1.75238e-005 3.56266e-009
Spine  -6.35511 3.05876 2.96718
Spine1  11.9763 5.43903 -8.12765
HEad  -19.9867 -7.52748 10.0035
LeftShoulder1  4.39902 -9.09752 -28.876
LeftArm  4.67452 16.9864 -45.5604
LeftForeArm  154.244 -75.1933 -140.985
LeftHand  -0.365541 -5.11551 4.34708
RightShoulder  3.11164 7.98751 20.744
RightArm  -34.6175 44.4395 30.1333
RightForeArm  38.2608 63.8106 19.254
RightHand  -0.582983 5.30422 -6.57279
LeftUpLeg  0.0722171 0.09442 1.22606
LeftLeg  2.26728 2.67723 -0.15315
LeftFoot  -1.40564 0.169515 -1.83034
LeftToes  4.76866e-008 1.46233e-008 1.30548e-009
567
root  -2.75023 40.8537 0.783651 -2.7748 -77.3537 2.50969
RightUpLeg  6.06664 -3.34111 -2.1839
RightLeg  -1.97298 -30.3027 1.8638
RightFoot  -1.7527 -0.365346 4.21971
RightToes  -3.13006e-008 1.75238e-005 3.56266e-009
Spine  -5.16915 3.17762 2.89527
Spine1  10.7695 5.41788 -7.79706
HEad  -20.3155 -8.49857 10.0933
LeftShoulder1  4.46505 -9.1474 -29.2694
LeftArm  5.40687 17.7925 -45.3275
LeftForeArm  155.171 -75.0211 -141.614
LeftHand  -0.385408 -4.90371 4.64513
RightShoulder  2.97376 7.77444 19.975
RightArm  -42.6599 45.2527 26.9995
RightForeArm  40.118 63.0064 18.2562
RightHand  -1.3212 6.4601 -13.2079
LeftUpLeg  -0.372328 -0.02415 1.27938
LeftLeg  2.68747 1.70025 -0.0518826
LeftFoot  -1.45476 0.167073 -1.81537
LeftToes  4.76866e-008 1.46233e-008 1.30548e-009
568
root  -2.72696 40.8409 0.757355 -2.08699 -75.9915 2.15805
RightUpLeg  5.70458 -3.38048 -2.05189
RightLeg  -1.75504 -31.635 1.8736
RightFoot  -1.83023 -0.366535 4.24927
RightToes  -3.13006e-008 1.75238e-005 3.56266e-009
Spine  -4.29022 3.29325 3.15206
Spine1  9.68315 5.52565 -8.00195
HEad  -20.5224 -8.99661 10.3004
LeftShoulder1  4.51951 -9.32078 -29.2149
LeftArm  6.06423 18.917 -45.0373
LeftForeArm  155.189 -74.8032 -142.172
LeftHand  -0.397546 -5.30217 4.62722
RightShoulder  2.63141 6.81524 19.0426
RightArm  -51.0309 46.8391 24.2102
RightForeArm  41.4408 62.2978 17.478
RightHand  -2.17223 7.63097 -19.5061
LeftUpLeg  -1.23394 -0.336108 1.22323
LeftLeg  3.22725 0.66597 0.100649
LeftFoot  -1.51172 0.17006 -1.87441
LeftToes  4.76866e-008 1.46233e-008 1.30548e-009
569
root  -2.73648 40.826 0.732399 -1.44569 -74.3623 1.7495
RightUpLeg  5.70867 -3.42577 -1.88302
RightLeg  -1.94821 -33.2077 2.0988
RightFoot  -1.8703 -0.37056 4.32353
RightToes  -3.13006e-008 1.75238e-005 3.56266e-009
Spine  -3.71315 3.15028 3.52617
Spine1  8.95322 5.39837 -8.32045
HEad  -20.9889 -9.20316 10.6343
LeftShoulder1  4.59213 -9.47752 -29.3518
LeftArm  6.52712 20.1566 -44.03
LeftForeArm  155.178 -74.4182 -143.119
LeftHand  -0.368984 -5.30803 4.31581
RightShoulder  2.31919 5.9824 17.9198
RightArm  -58.0693 48.5101 22.696
RightForeArm  43.0345 60.9418 16.2041
RightHand  -3.12064 8.54974 -25.861
LeftUpLeg  -1.99163 -0.609439 1.19225
LeftLeg  3.80227 -0.641471 0.223035
LeftFoot  -1.60524 0.173644 -1.92669
LeftToes  4.76866e-008 1.46233e-008 1.30548e-009
570
root  -2.74795 40.8141 0.705509 -1.40408 -73.0326 1.99136
RightUpLeg  5.58417 -3.43139 -1.81574
RightLeg  -2.00022 -34.5246 2.09434
RightFoot  -1.90564 -0.384848 4.55766
RightToes  -3.13006e-008 1.75238e-005 3.56266e-009
Spine  -3.37636 2.95801 3.78998
Spine1  8.14851 5.24058 -8.73049
HEad  -20.5291 -9.23386 10.7129
LeftShoulder1  4.64082 -9.63652 -29.2925
LeftArm  6.66557 21.5435 -43.0333
LeftForeArm  154.433 -74.2251 -143.444
LeftHand  -0.36542 -4.97169 4.39511
RightShoulder  2.21767 5.75729 17.3718
RightArm  -61.871 49.823 21.7974
RightForeArm  44.0217 59.2929 14.8977
RightHand  -3.7997 8.91372 -30.5111
LeftUpLeg  -2.56267 -0.882689 1.06595
LeftLeg  4.02517 -1.64515 0.229085
LeftFoot  -1.57428 0.183452 -2.03616
LeftToes  4.76866e-008 1.46233e-008 1.30548e-009
571
root  -2.76526 40.8191 0.682208 -1.59961 -72.424 2.37701
RightUpLeg  5.53481 -3.48262 -1.86752
RightLeg  -2.14171 -35.0623 2.19316
RightFoot  -1.92492 -0.377974 4.46357
RightToes  -3.13006e-008 1.75238e-005 3.56266e-009
Spine  -3.98047 2.73262 3.86877
Spine1  8.68083 5.09082 -8.97022
HEad  -19.9744 -8.41126 10.8814
LeftShoulder1  4.54331 -9.43976 -29.071
LeftArm  6.17231 22.5087 -42.8011
LeftForeArm  154 -74.3027 -143.184
LeftHand  -0.365978 -4.84374 4.45268
RightShoulder  2.18449 5.6683 17.2267
RightArm  -59.0657 50.7084 21.0537
RightForeArm  37.1012 58.2599 14.8757
RightHand  -3.48868 8.34766 -29.2094
LeftUpLeg  -2.7154 -0.87129 1.03653
LeftLeg  3.83113 -2.20446 0.0688829
LeftFoot  -1.46579 0.212333 -2.35613
LeftToes  4.76866e-008 1.46233e-008 1.30548e-009
572
root  -2.78068 40.8272 0.655425 -2.2581 -72.6402 2.84967
RightUpLeg  5.70973 -3.51473 -1.96268
RightLeg  -2.05482 -34.8055 2.07009
RightFoot  -1.95628 -0.37334 4.40444
RightToes  -3.13006e-008 1.75238e-005 3.56266e-009
Spine  -3.83283 2.85148 3.61418
Spine1  8.59577 5.14122 -8.6186
HEad  -18.6922 -8.94739 10.893
LeftShoulder1  4.42708 -9.11267 -29.0608
LeftArm  5.81584 23.3671 -42.454
LeftForeArm  154.568 -74.3014 -143.288
LeftHand  -0.389471 -4.58642 4.82266
RightShoulder  1.9696 5.17729 15.9835
RightArm  -48.0246 49.2021 20.2909
RightForeArm  22.8406 58.7929 16.6964
RightHand  -2.55458 7.0181 -23.7395
LeftUpLeg  -2.23313 -0.719591 1.037
LeftLeg  3.39479 -2.08381 -0.0656921
LeftFoot  -1.3251 0.226593 -2.49489
LeftToes  4.76866e-008 1.46233e-008 1.30548e-009
573
root  -2.78409 40.8426 0.622626 -2.95058 -73.4429 3.08273
RightUpLeg  6.13875 -3.51763 -2.02102
RightLeg  -2.09379 -33.9703 2.04966
RightFoot  -1.93895 -0.367555 4.32746
RightToes  -3.13006e-008 1.75238e-005 3.56266e-009
Spine  -3.57881 3.3365 3.58704
Spine1  8.88581 5.56428 -8.20301
HEad  -18.139 -9.38581 11.0106
LeftShoulder1  4.44678 -9.01021 -29.5142
LeftArm  5.51031 23.6036 -41.8235
LeftForeArm  155.874 -74.1897 -143.78
LeftHand  -0.37944 -4.92969 4.56719
RightShoulder  1.72347 4.56289 14.5579
RightArm  -34.8413 47.1956 18.3033
RightForeArm  15.9655 61.5239 19.7476
RightHand  -1.05769 4.74375 -11.9078
LeftUpLeg  -1.39413 -0.437409 1.13713
LeftLeg  2.91543 -1.55677 -0.139481
LeftFoot  -1.17663 0.239084 -2.60947
LeftToes  4.76866e-008 1.46233e-008 1.30548e-009
574
root  -2.76666 40.8543 0.588862 -3.49744 -74.7597 3.21123
RightUpLeg  6.2996 -3.5524 -2.08909
RightLeg  -1.83248 -32.5594 1.92451
RightFoot  -1.97563 -0.355776 4.1573
RightToes  -3.13006e-008 1.75238e-005 3.56266e-009
Spine  -3.7086 3.80513 4.02481
Spine1  9.87684 6.13778 -8.33275
HEad  -18.0414 -9.49175 11.7367
LeftShoulder1  4.27642 -8.64372 -29.1777
LeftArm  5.01436 23.6216 -41.7566
LeftForeArm  156.015 -73.9364 -144.384
LeftHand  -0.3596 -4.84803 4.3733
RightShoulder  1.6792 4.55759 13.9586
RightArm  -24.3513 47.0489 15.7806
RightForeArm  14.659 65.8627 24.866
RightHand  0.246917 2.55666 3.31235
LeftUpLeg  -0.607384 -0.0856068 1.32867
LeftLeg  2.5023 -0.615674 -0.244755
LeftFoot  -1.12332 0.235034 -2.55408
LeftToes  4.76866e-008 1.46233e-008 1.30548e-009
575
root  -2.7393 40.8596 0.550464 -4.08987 -76.3206 3.24313
RightUpLeg  6.49817 -3.63096 -2.15523
RightLeg  -1.39063 -30.9036 1.75008
RightFoot  -2.06057 -0.34476 4.00052
RightToes  -3.13006e-008 1.75238e-005 3.56266e-009
Spine  -3.55851 4.45107 4.92645
Spine1  11.0813 6.98045 -8.7308
HEad  -19.0033 -10.2609 12.7959
LeftShoulder1  4.19837 -8.62892 -28.5642
LeftArm  4.54759 23.8049 -42.2195
LeftForeArm  155.589 -73.916 -144.355
LeftHand  -0.409716 -4.97596 4.89109
RightShoulder  1.67125 4.71788 13.4009
RightArm  -17.9395 48.0171 15.1631
RightForeArm  19.1378 70.6515 32.9155
RightHand  0.874923 1.83459 13.4206
LeftUpLeg  0.228305 0.31174 1.58304
LeftLeg  2.33022 0.502251 -0.346648
LeftFoot  -1.19913 0.244845 -2.67577
LeftToes  4.76866e-008 1.46233e-008 1.30548e-009
576
root  -2.68141 40.8565 0.499721 -4.36722 -77.7735 3.12154
RightUpLeg  6.36041 -3.60107 -2.10015
RightLeg  -0.6975 -29.462 1.39253
RightFoot  -2.11973 -0.335027 3.86617
RightToes  -3.13006e-008 1.75238e-005 3.56266e-009
Spine  -3.24969 4.8773 5.10274
Spine1  11.8592 7.36588 -8.20973
HEad  -20.2475 -10.5063 13.9565
LeftShoulder1  4.19293 -8.66505 -28.4131
LeftArm  3.72337 24.4884 -42.3296
LeftForeArm  155.33 -73.699 -144.792
LeftHand  -0.376966 -5.06851 4.48796
RightShoulder  1.75166 5.0425 13.5844
RightArm  -14.6226 49.6616 16.0483
RightForeArm  30.5064 74.6539 43.5487
RightHand  0.898734 2.42919 13.1131
LeftUpLeg  0.663728 0.493393 1.77501
LeftLeg  2.48408 1.7348 -0.264935
LeftFoot  -1.36357 0.256649 -2.81101
LeftToes  4.76866e-008 1.46233e-008 1.30548e-009
577
root  -2.63117 40.8588 0.455437 -4.4599 -79.1205 2.99063
RightUpLeg  6.23404 -3.42095 -1.96666
RightLeg  -0.446079 -28.2382 1.1709
RightFoot  -2.03204 -0.324808 3.72561
RightToes  -3.13006e-008 1.75238e-005 3.56266e-009
Spine  -3.0612 5.02599 4.74644
Spine1  12.5557 7.30873 -7.13196
HEad  -20.7862 -11.2304 15.1145
LeftShoulder1  4.14125 -8.4525 -28.5969
LeftArm  2.97717 25.2277 -42.1401
LeftForeArm  155.178 -73.5365 -145.119
LeftHand  -0.413275 -5.04518 4.9009
RightShoulder  1.87756 5.38886 14.2643
RightArm  -14.1251 52.2245 18.7685
RightForeArm  42.9011 76.5655 50.5795
RightHand  0.65987 3.14209 8.80028
LeftUpLeg  0.92474 0.645547 1.94597
LeftLeg  2.6052 2.895 -0.191687
LeftFoot  -1.44191 0.268291 -2.94177
LeftToes  4.76866e-008 1.46233e-008 1.30548e-009
